<svg xmlns="http://www.w3.org/2000/svg" viewBox="0 0 48 48" role="img" aria-label="Google">
	<path fill="#4285f4" d="M44.5 24.5c0-1.6-.1-3.1-.4-4.5H24v8.5h11.5c-.5 2.7-2 5-4.3 6.5v5.4h7c4.1-3.8 6.3-9.3 6.3-15.9z"/>
	<path fill="#34a853" d="M24 45c5.8 0 10.7-1.9 14.2-5.2l-7-5.4c-1.9 1.3-4.4 2.1-7.2 2.1-5.6 0-10.4-3.8-12.1-8.9H4.7v5.6C8.2 40.2 15.5 45 24 45z"/>
	<path fill="#fbbc05" d="M11.9 27.6c-.4-1.3-.7-2.6-.7-4s.2-2.8.7-4l-.1-5.6H4.7C3.3 16.9 2.5 20.1 2.5 23.6s.8 6.7 2.2 9.6l7.2-5.6z"/>
	<path fill="#ea4335" d="M24 10.7c3.2 0 6 1.1 8.2 3.2l6.1-6.1C34.7 4.4 29.8 2.5 24 2.5 15.5 2.5 8.2 7.3 4.7 14l7.2 5.6c1.7-5.1 6.5-8.9 12.1-8.9z"/>
</svg>
